<svg xmlns="http://www.w3.org/2000/svg" width="45" height="45" viewBox="0 0 45 45">
  <path fill="#DB9E9A" fill-rule="evenodd" d="M43.4185714,1.04142857 C42.0289286,-0.347142857 39.78,-0.347142857 38.3903571,1.04357143 L29.9335714,9.77464286 C29.9335714,9.77464286 26.6571429,8.68071429 22.8171429,7.46785714 C23.4525,5.61 22.8717857,4.44535714 21.7564286,3.83464286 C20.4503571,3.12107143 18.8978571,3.44142857 17.5114286,5.82857143 C14.5446429,4.94785714 11.9807143,4.25464286 11.1171429,4.2225 C8.64535714,4.12607143 4.57714286,8.78035714 4.98964286,9.72321429 C5.40214286,10.6639286 22.29,17.6657143 22.29,17.6657143 L11.3121429,29.0046429 C11.0421429,29.2735714 10.7925,29.5446429 10.5728571,29.8125 C10.5728571,29.8125 4.74642857,27.2807143 3.48,26.5575 C2.2125,25.8332143 0.402857143,29.6314286 0.402857143,29.6314286 L8.28642857,34.5075 C8.24892857,34.5407143 8.2125,34.5728571 8.175,34.6092857 C7.27607143,35.5071429 6.94607143,36.6353571 7.43464286,37.1260714 C7.92535714,37.6146429 9.0525,37.2835714 9.9525,36.3846429 C10.0082143,36.3321429 10.0532143,36.2732143 10.1046429,36.2185714 L10.6564286,36.7682143 L16.08,44.8639286 C16.08,44.8639286 19.9553571,44.2017857 18.9332143,42.0128571 C17.9089286,39.8239286 14.9764286,33.5528571 14.9764286,33.5528571 C15.1457143,33.4360714 15.3107143,33.3064286 15.4596429,33.1521429 L27.0053571,21.9717857 L27.1864286,22.1560714 C27.1864286,22.1560714 35.1578571,39.0021429 36.2110714,40.0585714 C37.2621429,41.1139286 42.1317857,37.1560714 41.8960714,34.3735714 C41.8125,33.4060714 40.9617857,30.675 39.8903571,27.5217857 C40.1325,27.3632143 40.3725,27.1960714 40.6082143,27.0085714 C42.9417857,25.1817857 43.0264286,23.5328571 42.0771429,22.3253571 C41.2414286,21.2592857 39.8839286,20.895 37.9746429,22.08 C36.4617857,17.8767857 35.0903571,14.2521429 35.0903571,14.2521429 L35.0367857,14.1964286 L43.4228571,6.075 C44.8082143,4.68428571 44.8082143,2.43214286 43.4185714,1.04142857 Z"/>
</svg>
