<svg xmlns="http://www.w3.org/2000/svg" width="26" height="45" viewBox="0 0 26 45">
  <path fill="#DB9E9A" fill-rule="evenodd" d="M25.1370588,15.4334191 C25.0155153,15.1693971 24.7537495,14.999945 24.4653988,14.999945 L15.6802153,14.999945 L24.3504582,1.15127282 C24.4950245,0.92029756 24.5038861,0.627799204 24.3734811,0.388562268 C24.2429891,0.148534321 23.9938207,0 23.7239752,0 L11.8621531,0 C11.581187,0 11.324634,0.160487379 11.1986597,0.414753527 L0.0781743012,22.914627 C-0.0367663411,23.1463933 -0.0241689162,23.4223683 0.110753848,23.6435878 C0.246458522,23.8648072 0.484419534,23.9998065 0.741667638,23.9998065 L8.36510791,23.9998065 L0.0581053001,43.9586884 C-0.0835071314,44.2999658 0.0425539963,44.6959108 0.354622618,44.8894449 C0.474689109,44.963712 0.608134934,44.9996591 0.740885729,44.9996591 C0.953651891,44.9996591 1.16346417,44.9073745 1.30881239,44.7334399 L25.0325436,16.2335708 C25.2185511,16.0101541 25.2586022,15.6981442 25.1370588,15.4334191 Z"/>
</svg>
