<svg xmlns="http://www.w3.org/2000/svg" width="47" height="50" viewBox="0 0 47 50">
  <g fill="#FFFFFF" fill-rule="evenodd">
    <path d="M45.3125,0 L1.5625,0 C0.699609375,0 0,0.699609375 0,1.5625 L0,48.4375 C0,49.3003906 0.699609375,50 1.5625,50 L45.3125,50 C46.1753906,50 46.875,49.3003906 46.875,48.4375 L46.875,1.5625 C46.875,0.699609375 46.1753906,0 45.3125,0 Z M25,3.125 L32.8125,3.125 L32.8125,9.375 L25,9.375 L25,3.125 Z M14.0625,3.125 L21.875,3.125 L21.875,9.375 L14.0625,9.375 L14.0625,3.125 Z M10.9375,9.375 C10.0746094,9.375 9.375,10.0746094 9.375,10.9375 L9.375,39.0625 C9.375,39.9253906 10.0746094,40.625 10.9375,40.625 L10.9375,46.875 L3.125,46.875 L3.125,3.125 L10.9375,3.125 L10.9375,9.375 Z M21.875,46.875 L14.0625,46.875 L14.0625,40.625 L21.875,40.625 L21.875,46.875 Z M32.8125,46.875 L25,46.875 L25,40.625 L32.8125,40.625 L32.8125,46.875 Z M34.375,37.5 L12.5,37.5 L12.5,12.5 L34.375,12.5 L34.375,37.5 Z M43.75,46.875 L35.9375,46.875 L35.9375,40.625 C36.8003906,40.625 37.5,39.9253906 37.5,39.0625 L37.5,10.9375 C37.5,10.0746094 36.8003906,9.375 35.9375,9.375 L35.9375,3.125 L43.75,3.125 L43.75,46.875 Z"/>
    <path d="M17.1875,34.3751953 L29.6875,34.3751953 C30.5504883,34.3751953 31.25,33.6755859 31.25,32.8126953 L31.25,26.5626953 C31.25,25.699707 30.5504883,25.0001953 29.6875,25.0001953 L29.6871094,25.0001953 L29.6875,25 L29.6875,21.875 C29.6875,18.4288086 26.8836914,15.625 23.4375,15.625 C19.9913086,15.625 17.1875,18.4288086 17.1875,21.875 L17.1875,25 L17.1878906,25.0001953 L17.1875,25.0001953 C16.3245117,25.0001953 15.625,25.699707 15.625,26.5626953 L15.625,32.8126953 C15.625,33.6755859 16.3245117,34.3751953 17.1875,34.3751953 Z M23.4375,31.25 C22.5745117,31.25 21.875,30.5503906 21.875,29.6875 C21.875,28.8245117 22.5745117,28.125 23.4375,28.125 C24.3004883,28.125 25,28.8245117 25,29.6875 C25,30.5503906 24.3004883,31.25 23.4375,31.25 Z M20.3125,21.875 C20.3125,20.1515625 21.7140625,18.75 23.4375,18.75 C25.1609375,18.75 26.5625,20.1515625 26.5625,21.875 L26.5625,25.0001953 L20.3125,25.0001953 L20.3125,21.875 Z"/>
  </g>
</svg>
