<svg xmlns="http://www.w3.org/2000/svg" width="32" height="30" viewBox="0 0 32 30">
  <path fill="#878484" fill-rule="evenodd" d="M31.16,13.58125 C31.774375,12.9825 31.99125,12.10375 31.72625,11.286875 C31.460625,10.47 30.76875,9.886875 29.91875,9.763125 L22.36125,8.665 C22.039375,8.618125 21.76125,8.41625 21.6175,8.124375 L18.23875,1.276875 C17.859375,0.5075 17.089375,0.029375 16.23125,0.029375 C15.37375,0.029375 14.60375,0.5075 14.224375,1.276875 L10.845,8.125 C10.70125,8.416875 10.4225,8.61875 10.100625,8.665625 L2.543125,9.76375 C1.69375,9.886875 1.00125,10.470625 0.735625,11.2875 C0.470625,12.104375 0.6875,12.983125 1.301875,13.581875 L6.77,18.911875 C7.003125,19.139375 7.11,19.466875 7.055,19.786875 L5.765,27.313125 C5.650625,27.975625 5.824375,28.62 6.253125,29.128125 C6.919375,29.92 8.0825,30.16125 9.0125,29.6725 L15.77125,26.11875 C16.05375,25.970625 16.409375,25.971875 16.69125,26.11875 L23.450625,29.6725 C23.779375,29.845625 24.13,29.933125 24.491875,29.933125 C25.1525,29.933125 25.77875,29.639375 26.209375,29.128125 C26.63875,28.62 26.811875,27.974375 26.6975,27.313125 L25.406875,19.786875 C25.351875,19.46625 25.45875,19.139375 25.691875,18.911875 L31.16,13.58125 Z"/>
</svg>
