<svg xmlns="http://www.w3.org/2000/svg" width="38" height="45" viewBox="0 0 38 45">
  <path fill="#DB9E9A" fill-rule="evenodd" d="M37.2306,25.5374 L37.2306,28.0862 C37.2306,28.9148 36.5592,29.5862 35.7306,29.5862 L28.3248,29.5862 C27.4962,29.5862 26.8248,28.9148 26.8248,28.0862 L26.8248,25.5374 C26.8248,24.8108 27.3412,24.2054 28.027,24.0672 L28.027,21.198 C28.027,20.686 27.6104,20.2694 27.0984,20.2694 L26.7936,20.2694 C25.414,22.7528 22.8118,24.308 19.909,24.308 C17.0062,24.308 14.4042,22.7528 13.0244,20.2694 L1.6348,20.2694 C0.8062,20.2694 0.1348,19.598 0.1348,18.7694 L0.1348,13.8162 C0.1348,12.9876 0.8062,12.3162 1.6348,12.3162 L13.1786,12.3162 C14.1282,10.762 15.5828,9.5992 17.269,8.9978 L17.269,7.135 C17.269,7.0322 17.2794,6.932 17.2992,6.835 L13.2726,6.835 C12.444,6.835 11.7726,6.1636 11.7726,5.335 L11.7726,3.187 C11.7726,2.3584 12.444,1.687 13.2726,1.687 L17.2688,1.687 L17.2688,1.5 C17.2688,0.6714 17.9402,0 18.7688,0 L21.0488,0 C21.8774,0 22.5488,0.6714 22.5488,1.5 L22.5488,1.687 L26.5452,1.687 C27.3738,1.687 28.0452,2.3584 28.0452,3.187 L28.0452,5.335 C28.0452,6.1636 27.3738,6.835 26.5452,6.835 L22.5186,6.835 C22.5382,6.932 22.5488,7.0322 22.5488,7.135 L22.5488,8.9978 C24.235,9.5992 25.6896,10.7618 26.6392,12.3162 L29.5268,12.3162 C33.0586,12.3162 35.932,15.1894 35.932,18.7212 L35.932,24.0524 C36.6652,24.151 37.2306,24.7774 37.2306,25.5374 Z M35.67,39.941 C35.652,39.8508 35.626,39.7636 35.5926,39.68 L33.3626,32.5758 C33.1666,31.9504 32.5868,31.525 31.9316,31.525 C31.2764,31.525 30.6966,31.9504 30.5006,32.5758 L28.2374,39.786 C28.226,39.822 28.2162,39.8582 28.2078,39.8946 C28.0878,40.275 28.0274,40.6664 28.0274,41.0608 C28.0274,43.2138 29.779,44.9652 31.9318,44.9652 C34.0846,44.9652 35.8362,43.2136 35.8362,41.0608 C35.836,40.6826 35.78,40.307 35.67,39.941 Z"/>
</svg>
