<svg xmlns="http://www.w3.org/2000/svg" width="36" height="45" viewBox="0 0 36 45">
  <path fill="#DB9E9A" fill-rule="evenodd" d="M35.2966724,42.1209262 L28.702976,30.114494 C30.5728302,29.8192539 31.9505403,28.1462264 31.9505403,26.276295 L31.9505403,8.56188679 C31.9505403,3.83812178 28.1124185,0 23.3885763,0 L12.1694511,0 C7.44560892,0 3.50907376,3.83812178 3.50907376,8.66037736 L3.50907376,26.2763722 C3.50907376,28.2446398 4.88686106,29.8192539 6.75671527,30.1145712 L0.261432247,42.1209262 C-0.230634648,43.10506 0.0646054889,44.2860206 1.04873928,44.7780875 C1.34397942,44.9749142 1.63921955,44.9749142 1.93445969,44.9749142 C2.62335334,44.9749142 3.312247,44.5812607 3.60748714,43.9907804 L4.19796741,43.0066467 L31.36006,43.0066467 L31.9504631,43.9907804 C32.3441938,44.6796741 32.9345969,44.9749142 33.6235678,44.9749142 C33.9187307,44.9749142 34.2139708,44.876578 34.5092882,44.7780875 C35.493422,44.2860206 35.7887393,43.10506 35.2966724,42.1209262 Z M26.0457376,33.2637221 L9.51228988,33.2637221 L11.1853173,30.2129074 L24.3727101,30.2129074 L26.0457376,33.2637221 Z M25.7505746,26.6700257 C24.1759605,26.6700257 22.8965094,25.3906518 22.8965094,23.8159605 C22.8965094,22.2413465 24.1758834,20.9619726 25.7505746,20.9619726 C27.3251115,20.9619726 28.6045626,22.2413465 28.6045626,23.8159605 C28.6044854,25.2922384 27.3251115,26.6700257 25.7505746,26.6700257 Z M6.95354202,9.74292453 C6.95354202,6.69210978 9.4138765,4.2317753 12.3662779,4.2317753 L23.0933362,4.2317753 C26.0457376,4.2317753 28.6044854,6.69210978 28.6044854,9.74292453 L28.6044854,14.4667667 C28.6044854,15.5493139 27.718765,16.3366209 26.6362178,16.3366209 L8.92180961,16.3366209 C7.83926244,16.3366209 7.0519554,15.4509005 7.0519554,14.4667667 L6.95354202,9.74292453 L6.95354202,9.74292453 Z M9.80753002,20.8636364 C11.3821441,20.8636364 12.661518,22.1430103 12.661518,23.7177015 C12.661518,25.2922384 11.3821441,26.5716895 9.80753002,26.5716895 C8.23291595,26.5716895 6.95354202,25.2923156 6.95354202,23.7177015 C6.95354202,22.1430103 8.23299314,20.8636364 9.80753002,20.8636364 Z M5.77265866,40.0542453 L7.937753,36.2161235 L27.6204288,36.2161235 L29.7855232,40.0542453 L5.77265866,40.0542453 Z"/>
</svg>
